<svg width="50" height="47" viewBox="0 0 50 47" fill="none" xmlns="http://www.w3.org/2000/svg">
<g id="Layer_1" clip-path="url(#clip0_0_63)">
<path id="Vector" d="M4.36401 44.0421V34.8361H10.9258V44.0421" stroke="#76C234" stroke-width="1.3" stroke-linecap="round" stroke-linejoin="round"/>
<path id="Vector_2" d="M15.6189 44.0423V27.891H22.8072V44.0423" stroke="#76C234" stroke-width="1.3" stroke-linecap="round" stroke-linejoin="round"/>
<path id="Vector_3" d="M38.5376 44.0418V13.8583H46.1736V44.0418" stroke="#76C234" stroke-width="1.3" stroke-linecap="round" stroke-linejoin="round"/>
<path id="Vector_4" d="M26.9653 44.0422V19.9895H34.6129V44.0422" stroke="#76C234" stroke-width="1.3" stroke-linecap="round" stroke-linejoin="round"/>
<path id="Vector_5" d="M0.628662 46.3834H49.3691" stroke="#76C234" stroke-width="1.3" stroke-linecap="round" stroke-linejoin="round"/>
<path id="Vector_6" d="M15.0085 21.815L46.1612 1.62786" stroke="#76C234" stroke-width="1.3" stroke-linecap="round" stroke-linejoin="round"/>
<path id="Vector_7" d="M45.1304 6.60122L46.1603 1.62713L41.0828 0.616569" stroke="#76C234" stroke-width="1.3" stroke-linecap="round" stroke-linejoin="round"/>
<path id="Vector_8" d="M9.5003 21.7807C9.72539 20.4223 8.78372 19.1423 7.39702 18.9218C6.01032 18.7013 4.70371 19.6238 4.47861 20.9822C4.25352 22.3406 5.19519 23.6206 6.58189 23.8411C7.96859 24.0616 9.27521 23.1392 9.5003 21.7807Z" stroke="#76C234" stroke-width="1.3" stroke-linecap="round" stroke-linejoin="round"/>
<path id="Vector_9" d="M6.33378 23.8748H7.64746C10.1026 23.8748 12.0953 25.8269 12.0953 28.232V29.7775H1.88599V28.232C1.88599 25.8269 3.87864 23.8748 6.33378 23.8748Z" stroke="#76C234" stroke-width="1.3" stroke-linecap="round" stroke-linejoin="round"/>
</g>
<defs>
<clipPath id="clip0_0_63">
<rect width="50" height="47" fill="white"/>
</clipPath>
</defs>
</svg>
