<svg width="45" height="42" viewBox="0 0 45 42" fill="none" xmlns="http://www.w3.org/2000/svg">
<g id="Layer_1" clip-path="url(#clip0_0_30)">
<path id="Vector" d="M3.92754 39.3567V31.1301H9.83318V39.3567" stroke="#198EB2" stroke-width="1.35393" stroke-linecap="round" stroke-linejoin="round"/>
<path id="Vector_2" d="M14.0569 39.3569V24.9238H20.5264V39.3569" stroke="#198EB2" stroke-width="1.35393" stroke-linecap="round" stroke-linejoin="round"/>
<path id="Vector_3" d="M34.6838 39.3568V12.3843H41.5562V39.3568" stroke="#198EB2" stroke-width="1.35393" stroke-linecap="round" stroke-linejoin="round"/>
<path id="Vector_4" d="M24.2687 39.3568V17.863H31.1515V39.3568" stroke="#198EB2" stroke-width="1.35393" stroke-linecap="round" stroke-linejoin="round"/>
<path id="Vector_5" d="M0.565727 41.4487H44.4321" stroke="#198EB2" stroke-width="1.35393" stroke-linecap="round" stroke-linejoin="round"/>
<path id="Vector_6" d="M13.5076 19.4939L41.545 1.45431" stroke="#198EB2" stroke-width="1.35393" stroke-linecap="round" stroke-linejoin="round"/>
<path id="Vector_7" d="M40.6173 5.89927L41.5442 1.45434L36.9744 0.551285" stroke="#198EB2" stroke-width="1.35393" stroke-linecap="round" stroke-linejoin="round"/>
<path id="Vector_8" d="M8.5502 19.4636C8.75278 18.2497 7.90528 17.1058 6.65725 16.9088C5.40922 16.7117 4.23327 17.5361 4.03068 18.75C3.8281 19.9639 4.6756 21.1078 5.92363 21.3048C7.17166 21.5018 8.34762 20.6775 8.5502 19.4636Z" stroke="#198EB2" stroke-width="1.35393" stroke-linecap="round" stroke-linejoin="round"/>
<path id="Vector_9" d="M5.70034 21.3346H6.88264C9.09227 21.3346 10.8857 23.079 10.8857 25.2282V26.6094H1.69732V25.2282C1.69732 23.079 3.49071 21.3346 5.70034 21.3346Z" stroke="#198EB2" stroke-width="1.35393" stroke-linecap="round" stroke-linejoin="round"/>
</g>
<defs>
<clipPath id="clip0_0_30">
<rect width="45" height="42" fill="white"/>
</clipPath>
</defs>
</svg>
